<?xml version="1.0" encoding="UTF-8"?><svg id="Camada_2" xmlns="http://www.w3.org/2000/svg" xmlns:xlink="http://www.w3.org/1999/xlink" viewBox="0 0 391.97 566.41"><defs><style>.cls-1,.cls-2,.cls-3,.cls-4{fill:none;}.cls-5{clip-path:url(#clippath);}.cls-2{stroke:#105d97;}.cls-2,.cls-3,.cls-4{stroke-miterlimit:10;}.cls-3{stroke:#96d3f3;}.cls-4{stroke:#2c7daf;}</style><clipPath id="clippath"><rect class="cls-1" width="391.97" height="566.41"/></clipPath></defs><g id="Camada_1-2"><g class="cls-5"><g><g><g><line class="cls-4" x1="250.08" y1="31.35" x2="363.57" y2="151.54"/><line class="cls-4" x1="224.2" y1="89.08" x2="389.45" y2="93.81"/><line class="cls-4" x1="304.46" y1="174.07" x2="309.19" y2="8.82"/><line class="cls-4" x1="246.73" y1="148.19" x2="366.92" y2="34.7"/></g><g><line class="cls-4" x1="278.49" y1="13.8" x2="335.16" y2="169.09"/><line class="cls-4" x1="231.88" y1="56.57" x2="381.77" y2="126.31"/><line class="cls-4" x1="271.96" y1="166.38" x2="341.7" y2="16.5"/><line class="cls-4" x1="229.18" y1="119.78" x2="384.47" y2="63.11"/></g></g><g><g><line class="cls-4" x1="262.62" y1="21.6" x2="351.03" y2="161.29"/><line class="cls-4" x1="226.18" y1="73.32" x2="387.47" y2="109.57"/><line class="cls-4" x1="288.7" y1="172.09" x2="324.95" y2="10.8"/><line class="cls-4" x1="236.98" y1="135.65" x2="376.67" y2="47.24"/></g><g><line class="cls-4" x1="293.87" y1="9.81" x2="319.78" y2="173.08"/><line class="cls-4" x1="239.94" y1="42.88" x2="373.71" y2="140"/><line class="cls-4" x1="258.26" y1="158.33" x2="355.39" y2="24.56"/><line class="cls-4" x1="225.19" y1="104.4" x2="388.46" y2="78.49"/></g></g></g><g><g><g><line class="cls-2" x1="150.81" y1="93.86" x2="212.48" y2="159.17"/><line class="cls-2" x1="136.75" y1="125.23" x2="226.54" y2="127.8"/><line class="cls-2" x1="180.36" y1="171.41" x2="182.93" y2="81.63"/><line class="cls-2" x1="148.99" y1="157.35" x2="214.3" y2="95.68"/></g><g><line class="cls-2" x1="166.25" y1="84.33" x2="197.04" y2="168.71"/><line class="cls-2" x1="140.93" y1="107.57" x2="222.36" y2="145.46"/><line class="cls-2" x1="162.7" y1="167.24" x2="200.59" y2="85.8"/><line class="cls-2" x1="139.46" y1="141.91" x2="223.83" y2="111.12"/></g></g><g><g><line class="cls-2" x1="157.63" y1="88.57" x2="205.66" y2="164.47"/><line class="cls-2" x1="137.83" y1="116.67" x2="225.46" y2="136.37"/><line class="cls-2" x1="171.79" y1="170.33" x2="191.49" y2="82.7"/><line class="cls-2" x1="143.7" y1="150.54" x2="219.59" y2="102.5"/></g><g><line class="cls-2" x1="174.6" y1="82.16" x2="188.69" y2="170.87"/><line class="cls-2" x1="145.3" y1="100.13" x2="217.99" y2="152.9"/><line class="cls-2" x1="155.26" y1="162.86" x2="208.03" y2="90.18"/><line class="cls-2" x1="137.29" y1="133.56" x2="226" y2="119.48"/></g></g></g><g><g><g><line class="cls-3" x1="78.19" y1="230.37" x2="392.24" y2="562.95"/><line class="cls-3" x1="6.59" y1="390.11" x2="463.83" y2="403.21"/><line class="cls-3" x1="228.66" y1="625.28" x2="241.77" y2="168.04"/><line class="cls-3" x1="68.92" y1="553.69" x2="401.51" y2="239.63"/></g><g><line class="cls-3" x1="156.81" y1="181.8" x2="313.62" y2="611.52"/><line class="cls-3" x1="27.85" y1="300.17" x2="442.58" y2="493.15"/><line class="cls-3" x1="138.73" y1="604.03" x2="331.7" y2="189.29"/><line class="cls-3" x1="20.36" y1="475.06" x2="450.07" y2="318.26"/></g></g><g><g><line class="cls-3" x1="112.9" y1="203.4" x2="357.53" y2="589.92"/><line class="cls-3" x1="12.07" y1="346.5" x2="458.36" y2="446.82"/><line class="cls-3" x1="185.05" y1="619.81" x2="285.38" y2="173.51"/><line class="cls-3" x1="41.96" y1="518.98" x2="428.47" y2="274.34"/></g><g><line class="cls-3" x1="199.36" y1="170.77" x2="271.07" y2="622.55"/><line class="cls-3" x1="50.13" y1="262.29" x2="420.29" y2="531.03"/><line class="cls-3" x1="100.84" y1="581.74" x2="369.59" y2="211.58"/><line class="cls-3" x1="9.33" y1="432.52" x2="461.1" y2="360.8"/></g></g></g><g><g><g><line class="cls-3" x1="95.12" y1="215.87" x2="375.3" y2="577.45"/><line class="cls-3" x1="8.32" y1="367.88" x2="462.11" y2="425.44"/><line class="cls-3" x1="206.43" y1="623.56" x2="263.99" y2="169.76"/><line class="cls-3" x1="54.42" y1="536.75" x2="416.01" y2="256.57"/></g><g><line class="cls-3" x1="178.1" y1="175.19" x2="292.32" y2="618.13"/><line class="cls-3" x1="38.23" y1="280.44" x2="432.2" y2="512.88"/><line class="cls-3" x1="118.99" y1="593.65" x2="351.43" y2="199.67"/><line class="cls-3" x1="13.74" y1="453.77" x2="456.68" y2="339.55"/></g></g><g><g><line class="cls-3" x1="132.29" y1="192.41" x2="338.13" y2="600.91"/><line class="cls-3" x1="18.01" y1="325.01" x2="452.42" y2="468.31"/><line class="cls-3" x1="163.56" y1="613.86" x2="306.86" y2="179.46"/><line class="cls-3" x1="30.96" y1="499.58" x2="439.46" y2="293.74"/></g><g><line class="cls-3" x1="221.52" y1="168.35" x2="248.91" y2="624.96"/><line class="cls-3" x1="64.1" y1="244.91" x2="406.33" y2="548.41"/><line class="cls-3" x1="83.46" y1="567.78" x2="386.97" y2="225.54"/><line class="cls-3" x1="6.91" y1="410.35" x2="463.52" y2="382.97"/></g></g></g></g></g></svg>