<svg width="74" height="74" viewBox="0 0 74 74" fill="none" xmlns="http://www.w3.org/2000/svg">
<rect width="74" height="74" rx="37" fill="#DC388B"/>
<g clip-path="url(#clip0_50_793)">
<path d="M50.525 40.746C50.4184 40.911 50.2771 41.056 50.1384 41.1959C46.0592 45.3144 41.98 49.4303 37.8995 53.545C37.7397 53.7063 37.5637 53.8488 37.3964 54H36.6046C35.1326 52.5301 33.6568 51.0652 32.1909 49.5903C29.4016 46.783 26.6161 43.972 23.8379 41.1534C23.6273 40.9385 23.4414 40.661 23.3435 40.3773C23.1911 39.9398 23.377 39.5623 23.745 39.2973C24.0994 39.0424 24.4897 39.0274 24.859 39.2498C25.0672 39.3761 25.2456 39.5586 25.4191 39.7336C28.7672 43.1071 32.1128 46.4818 35.4585 49.8566C35.5836 49.9828 35.715 50.1015 35.9343 50.3115V49.6353C35.9343 45.0182 35.9306 27.3207 35.933 21.0812C35.933 20.4837 36.4126 20 37.0049 20C37.5972 20 38.0767 20.4837 38.0767 21.0812C38.0767 27.3682 38.0767 45.1382 38.0767 49.8141C38.0767 49.9428 38.0879 50.0703 38.0978 50.284C38.2762 50.119 38.4076 50.0065 38.529 49.8841C41.9106 46.4756 45.2884 43.0621 48.6774 39.6611C48.9005 39.4373 49.1966 39.2398 49.494 39.1511C49.9054 39.0299 50.2734 39.2148 50.5175 39.5823C50.7703 39.9635 50.774 40.3635 50.525 40.746Z" fill="white"/>
</g>
<defs>
<clipPath id="clip0_50_793">
<rect width="27.4194" height="34" fill="white" transform="translate(23.2903 20)"/>
</clipPath>
</defs>
</svg>
